HIERARCHY
ROOT Hips
{
  OFFSET 0 0 0
  CHANNELS 6 Xposition Yposition Zposition Zrotation Yrotation Xrotation
  JOINT LeftThigh
  {
    OFFSET 8.409438 0 -5.917753
    CHANNELS 3 Zrotation Yrotation Xrotation
    JOINT LeftLeg
    {
      OFFSET 0 0 -42.358652
      CHANNELS 3 Zrotation Yrotation Xrotation
      JOINT LeftFoot
      {
        OFFSET 0 0 -39.357303
        CHANNELS 3 Zrotation Yrotation Xrotation
      }
    }
  }
  JOINT RightThigh
  {
    OFFSET -8.409438 0 -5.917753
    CHANNELS 3 Zrotation Yrotation Xrotation
    JOINT RightLeg
    {
      OFFSET 0 0 -42.358652
      CHANNELS 3 Zrotation Yrotation Xrotation
      JOINT RightFoot
      {
        OFFSET 0 0 -39.357303
        CHANNELS 3 Zrotation Yrotation Xrotation
      }
    }
  }
  JOINT SpineLow
  {
    OFFSET 0 0 4.719101
    CHANNELS 3 Zrotation Yrotation Xrotation
    JOINT SpineMid
    {
      OFFSET 0 0 12.899191
      CHANNELS 3 Zrotation Yrotation Xrotation
      JOINT Chest
      {
        OFFSET 0 0 12.899191
        CHANNELS 3 Zrotation Yrotation Xrotation
        JOINT LeftShoulder
        {
          OFFSET 7.550562 1.41573 9.438202
          CHANNELS 3 Zrotation Yrotation Xrotation
          JOINT LeftArm
          {
            OFFSET 9.155056 0 4.247191
            CHANNELS 3 Zrotation Yrotation Xrotation
            JOINT LeftForearm
            {
              OFFSET 0 0 25.771955
              CHANNELS 3 Zrotation Yrotation Xrotation
              JOINT LeftHand
              {
                OFFSET 0 0 25.197169
                CHANNELS 3 Zrotation Yrotation Xrotation
              }
            }
          }
        }
        JOINT RightShoulder
        {
          OFFSET -7.550562 1.41573 9.438202
          CHANNELS 3 Zrotation Yrotation Xrotation
          JOINT RightArm
          {
            OFFSET -9.155056 0 4.247191
            CHANNELS 3 Zrotation Yrotation Xrotation
            JOINT RightForearm
            {
              OFFSET 0 0 -25.771955
              CHANNELS 3 Zrotation Yrotation Xrotation
              JOINT RightHand
              {
                OFFSET 0 0 -25.197169
                CHANNELS 3 Zrotation Yrotation Xrotation
              }
            }
          }
        }
        JOINT Neck
        {
          OFFSET 0 0 15.101124
          CHANNELS 3 Zrotation Yrotation Xrotation
          JOINT Head
          {
            OFFSET 0 0 11.325843
            CHANNELS 3 Zrotation Yrotation Xrotation
            End Site
            {
              OFFSET 0 0 14.157303
            }
          }
        }
      }
    }
  }
}
MOTION
Frames: 13
Frame Time: 0.0
0.0  89.887642  0.0  7.570931  -36.417509  -101.682109  16.667235  -10.233444  9.930178  -4.765137  0.485339  18.025039  1.675843  -0.623174  5.20364  5.865487  10.874364  -14.9594  1.115673  4.031961  23.100289  1.49057  2.219108  -0.584341  -3.524958  0.726108  -0.531927  -9.653032  1.902353  -1.556514  -9.653032  1.902354  -1.556514  -15.483347  -0.665089  6.959483  -14.050663  51.294492  68.108949  -23.402589  -18.529374  91.867868  97.259131  -8.538895  -12.941149  -18.893357  -0.290597  26.594778  53.084447  13.641712  43.009939  11.891904  -6.51334  -110.665621  80.984766  6.497841  -28.952609  15.529413  1.785393  9.115057  11.622594  1.57236  6.795579  
0.0  89.887642  0.0  7.542322  -36.137213  -101.606459  16.705968  -10.30497  9.971211  -4.641488  0.47214  17.959904  1.517844  -0.689651  5.084914  5.636603  10.935993  -15.072889  1.129331  3.981305  23.287802  1.52444  2.244476  -0.567229  -3.668277  0.685034  -0.488275  -10.042518  1.793475  -1.435206  -10.042518  1.793475  -1.435207  -14.22753  -0.468087  6.646618  -14.385116  51.34796  67.808433  -23.332465  -18.592751  91.883796  97.305728  -8.419234  -12.803022  -17.936037  -0.264673  26.114307  52.91567  13.713086  42.595202  11.817584  -6.861876  -110.845155  81.277485  5.961469  -29.289658  16.119264  2.057147  8.939148  12.061163  1.780631  6.654866  
0.0  89.887642  0.0  7.526069  -35.778058  -101.636649  16.618343  -10.342622  10.059992  -4.644848  0.402014  17.804169  1.437787  -0.770333  5.07696  5.447354  11.027746  -15.059741  0.974638  3.965058  23.474682  1.571358  2.275893  -0.571894  -3.786973  0.665385  -0.434899  -10.365131  1.745574  -1.289712  -10.36513  1.745573  -1.289712  -13.415776  -0.345313  6.350575  -14.464434  51.460879  67.547032  -23.240926  -18.577881  91.693004  97.313838  -8.462966  -12.664561  -17.160834  -0.283249  25.790582  53.07346  13.857607  42.374657  11.761409  -6.897337  -110.777969  81.319562  5.929168  -29.300368  16.463039  2.266776  8.747639  12.316259  1.937935  6.504391  
0.0  89.887642  0.0  7.521736  -35.522366  -101.592964  16.696686  -10.432321  10.105736  -4.561923  0.389829  17.674516  1.267493  -0.811126  4.955573  5.34784  11.074779  -15.037234  0.982368  3.977273  23.581654  1.389257  2.233838  -0.580057  -3.901624  0.63027  -0.384536  -10.676483  1.655644  -1.14968  -10.676483  1.655644  -1.149679  -12.262874  -0.142397  6.055869  -14.725621  51.605973  67.237259  -23.129447  -18.606332  91.605267  97.358958  -8.504355  -12.501345  -16.25123  -0.270467  25.329396  52.913465  14.024164  41.874217  11.776554  -7.1242  -110.788229  81.527294  5.602086  -29.465267  16.919133  2.520237  8.535243  12.655078  2.12896  6.336356  
0.0  89.887642  0.0  7.482418  -35.075676  -101.585426  16.60932  -10.504294  10.170062  -4.615208  0.347994  17.491099  1.152887  -0.900145  4.947913  4.927638  11.109884  -15.026661  1.03622  3.957794  23.708189  1.37976  2.243932  -0.574999  -4.000434  0.619795  -0.343315  -10.945396  1.632093  -1.038004  -10.945395  1.632093  -1.038004  -11.622869  -0.032949  5.879264  -14.727776  51.756652  67.035591  -23.031456  -18.74257  91.416644  97.395042  -8.512488  -12.450464  -15.611521  -0.302742  25.112935  53.120775  14.185428  41.555586  11.697933  -7.201672  -110.66818  81.581688  5.504025  -29.466623  17.176509  2.668727  8.362118  12.846434  2.239219  6.201215  
0.0  89.887642  0.0  7.41667  -34.648275  -101.496562  16.497009  -10.645411  10.148943  -4.60891  0.384087  17.354009  1.018891  -0.922639  4.843343  4.472179  11.062607  -15.020132  1.088205  4.007108  23.730334  1.447404  2.284075  -0.534774  -4.068766  0.602324  -0.304045  -11.130927  1.589949  -0.929687  -11.130927  1.589949  -0.929687  -11.008368  0.108283  5.724059  -14.836614  51.910187  66.796635  -22.913112  -18.918375  91.369026  97.562726  -8.425481  -12.442464  -15.078773  -0.344743  24.803129  53.147696  14.338984  41.09823  11.537155  -7.642675  -110.877114  81.850073  4.919111  -29.795537  17.399763  2.80961  8.172532  13.012437  2.342686  6.053943  
0.0  89.887642  0.0  7.346436  -34.146467  -101.474881  16.382909  -10.746362  10.179982  -4.725185  0.36976  17.202716  0.919589  -0.994397  4.831644  3.950104  11.062772  -14.962639  1.192852  4.011894  23.788422  1.457298  2.300261  -0.527249  -4.107098  0.606549  -0.278315  -11.2352  1.605246  -0.861194  -11.2352  1.605247  -0.861194  -10.788263  0.217882  5.747677  -14.816911  52.024529  66.574173  -22.827547  -19.163848  91.213673  97.700013  -8.442974  -12.50204  -14.768702  -0.406197  24.814769  53.360362  14.549179  40.643624  11.50294  -7.777234  -110.761422  81.891231  4.786713  -29.83013  17.431461  2.841377  8.042168  13.036245  2.36323  5.955033  
0.0  89.887642  0.0  7.254701  -33.635217  -101.37299  16.225127  -10.876778  10.09689  -4.791072  0.426213  17.109857  0.815025  -1.015352  4.754274  3.276775  10.985205  -14.927289  1.57725  4.016351  23.782039  1.420138  2.303993  -0.502824  -4.145874  0.597439  -0.256088  -11.340523  1.583688  -0.799989  -11.340523  1.583688  -0.799989  -10.440898  0.393467  5.754819  -14.875918  52.145906  66.380457  -22.729995  -19.426407  91.161027  97.876251  -8.521145  -12.693566  -14.441754  -0.48047  24.730517  53.303806  14.776602  39.955336  11.544621  -7.884375  -110.58271  81.968909  4.491717  -29.975872  17.523218  2.906749  7.893552  13.104683  2.409262  5.841179  
0.0  89.887642  0.0  7.169565  -33.062784  -101.342857  16.084068  -11.018113  10.082595  -4.952513  0.469319  17.007916  0.741991  -1.093278  4.743368  2.718507  11.030665  -14.831926  1.71192  3.961813  23.783728  1.399953  2.325279  -0.504867  -4.159712  0.609915  -0.238349  -11.378153  1.62054  -0.754132  -11.378153  1.62054  -0.754133  -10.398845  0.511501  5.895057  -14.840125  52.284075  66.174655  -22.667425  -19.671604  91.01082  98.026655  -8.55399  -12.736688  -14.347554  -0.63057  24.860222  53.635246  15.069619  39.476752  11.425072  -7.909257  -110.441493  81.923043  4.378349  -29.972924  17.413084  2.889355  7.77943  13.022807  2.391477  5.756488  
0.0  89.887642  0.0  7.049217  -32.485622  -101.184525  15.827167  -11.196852  9.885972  -4.842683  0.621751  17.079628  0.564766  -1.176326  4.599938  2.06082  10.977715  -14.830346  2.015446  3.974991  23.758975  1.344011  2.3103  -0.483355  -4.188947  0.59858  -0.225765  -11.457594  1.591474  -0.718582  -11.457594  1.591474  -0.718582  -10.104716  0.721069  5.98107  -14.84864  52.45376  66.033753  -22.623852  -19.914563  90.940574  98.281165  -8.731948  -12.942994  -14.156832  -0.790155  24.802348  53.34718  15.355836  38.631544  11.684785  -7.820423  -110.150214  82.050358  4.078042  -29.995904  17.431754  2.947007  7.659533  13.036463  2.431568  5.66472  
0.0  89.887642  0.0  6.962551  -31.877716  -101.129884  15.696648  -11.343337  9.811682  -4.983295  0.679134  17.029192  0.481778  -1.261144  4.589903  1.642721  11.069745  -14.736187  1.927816  3.954673  23.768276  1.33704  2.330037  -0.483928  -4.192936  0.605221  -0.213762  -11.468323  1.611596  -0.687128  -11.468323  1.611596  -0.687127  -10.06895  0.834573  6.139267  -14.733577  52.715455  65.974298  -22.600845  -20.12703  90.730132  98.400419  -8.731453  -13.033879  -14.026402  -1.049452  24.835772  53.538994  15.742427  38.272127  11.723509  -7.800082  -110.051898  82.050121  3.910918  -29.818001  17.27568  2.958965  7.580238  12.919571  2.436289  5.605512  
0.0  89.887642  0.0  6.829955  -31.244247  -100.894709  15.511962  -11.542964  9.520796  -5.034636  0.822454  17.038159  0.366676  -1.309549  4.5345  1.115632  11.108631  -14.810921  2.021721  3.965605  23.784957  1.300943  2.320036  -0.465163  -4.236281  0.576205  -0.221637  -11.586541  1.530686  -0.70453  -11.586541  1.530686  -0.704531  -9.537477  1.109801  6.277262  -14.809696  52.983495  65.935592  -22.59774  -20.346685  90.620404  98.543825  -8.639576  -13.109214  -13.709773  -1.192521  24.64221  53.303528  16.053032  37.607572  11.956689  -7.709453  -109.803168  82.181223  3.517736  -29.77287  17.362389  3.061234  7.534709  12.983325  2.512873  5.567968  
0.0  89.887642  0.0  6.746839  -30.559792  -100.766716  15.378675  -11.671058  9.296608  -5.173022  0.895033  17.069283  0.244008  -1.396099  4.533391  0.727896  11.23624  -14.794787  1.823638  3.962166  23.827625  1.272388  2.336579  -0.477254  -4.236744  0.574729  -0.224633  -11.587848  1.526138  -0.712443  -11.587849  1.526138  -0.712443  -9.474191  1.274625  6.452174  -14.669454  53.32943  65.962849  -22.591585  -20.611084  90.377575  98.672783  -8.620958  -13.200974  -13.578082  -1.400306  24.681837  53.492363  16.429837  37.147561  11.956397  -7.652447  -109.626733  82.245941  3.316371  -29.55748  17.19555  3.093062  7.49036  12.857941  2.533407  5.534491  
